<?xml version="1.0" encoding="UTF-8" standalone="no"?>
<!DOCTYPE svg PUBLIC "-//W3C//DTD SVG 1.1//EN" "http://www.w3.org/Graphics/SVG/1.1/DTD/svg11.dtd">
<svg width="100%" height="100%" viewBox="0 0 1000 650" version="1.1" xmlns="http://www.w3.org/2000/svg" xmlns:xlink="http://www.w3.org/1999/xlink" xml:space="preserve" xmlns:serif="http://www.serif.com/" style="fill-rule:evenodd;clip-rule:evenodd;stroke-miterlimit:10;">
    <g id="Layer-1" serif:id="Layer 1" transform="matrix(1.52248,0,0,1.52248,-262.448,-407.714)">
        <g transform="matrix(1,0,0,1,244.778,306.028)">
            <path d="M0,43.539C0.046,43.735 0.081,43.929 0.123,44.124C3.457,40.777 6.476,37.089 8.612,33.1C12.266,26.273 13.871,18.156 13.405,8.937C-3.88,-0.585 -24.392,0.84 -39.617,4.179C-42.503,4.81 -44.954,6.539 -46.521,9.047C-48.096,11.567 -48.577,14.544 -47.876,17.431C-46.686,22.335 -42.304,25.759 -37.219,25.759C-36.268,25.759 -35.296,25.631 -34.332,25.377C-24.93,22.906 -17.054,23.523 -10.924,27.213C-5.435,30.518 -1.76,36.011 0,43.539" style="fill:#fff;fill-rule:nonzero;"/>
        </g>
        <g transform="matrix(1,0,0,1,660.682,451.261)">
            <path d="M0,0.922C-1.932,-0.234 -3.186,-2.192 -3.464,-4.427C-3.676,-6.126 -3.918,-7.795 -4.18,-9.444C-4.593,-9.344 -5.018,-9.272 -5.457,-9.244L-52.258,-6.319C-52.413,-6.309 -52.567,-6.305 -52.721,-6.305C-56.551,-6.305 -59.77,-9.286 -60.012,-13.161C-60.264,-17.192 -57.201,-20.664 -53.17,-20.916L-7.266,-23.785C-13.213,-45.199 -24.31,-61.475 -40.396,-72.311C-49.46,-78.417 -59.474,-82.405 -69.581,-84.914L-69.581,-66.78C-69.581,-60.107 -69.442,-54.23 -69.156,-48.812C-68.575,-37.817 -69.752,-17.105 -84.158,-1.918C-94.898,9.404 -110.742,15.145 -131.25,15.145C-167.326,15.145 -187.404,3.153 -197.896,-6.907C-199.443,-8.391 -200.831,-9.878 -202.082,-11.343C-202.037,-10.065 -201.965,-8.769 -201.846,-7.446C-201.827,-7.229 -201.817,-7.011 -201.817,-6.793L-201.817,10.026C-201.817,14.065 -205.091,17.339 -209.13,17.339C-213.168,17.339 -216.442,14.065 -216.442,10.026L-216.442,-6.473C-218.595,-31.517 -209.425,-49.817 -205.654,-56.159L-205.715,-56.884L-261.138,-56.884C-261.261,-50.947 -261.865,-42.237 -263.971,-33.192C-269.139,-10.994 -280.852,2.282 -297.843,5.2C-310.801,7.424 -321.826,8.356 -331.553,9.177C-349.05,10.656 -361.692,11.723 -373.932,19.155C-380.683,23.254 -386.82,24.801 -392.152,24.801C-396.645,24.801 -400.561,23.698 -403.803,22.104C-404.923,26.274 -405.752,30.568 -406.252,34.981C-406.674,38.714 -409.838,41.471 -413.509,41.471C-413.783,41.471 -414.061,41.456 -414.34,41.424C-418.353,40.97 -421.238,37.349 -420.784,33.335C-420.222,28.368 -419.284,23.465 -418.003,18.647C-419.129,18.409 -420.212,18.119 -421.25,17.777C-425.862,23.506 -431.572,29.286 -438.108,34.852C-426.727,50.695 -410.555,56.409 -410.377,56.47C-407.958,57.302 -406.122,59.347 -405.581,61.847C-403.474,71.578 -399.073,78.547 -392.5,82.561C-387.869,85.39 -383.615,85.793 -383.024,85.836L-295.827,85.836C-295.812,85.836 -295.799,85.834 -295.784,85.834L-294.658,85.834C-295.165,84.723 -295.87,83.549 -296.849,82.386C-301.742,76.578 -311.625,73.107 -325.429,72.349C-327.506,72.234 -329.436,71.241 -330.736,69.617C-332.036,67.993 -332.583,65.892 -332.24,63.841C-332.224,63.739 -330.198,50.134 -338.351,42.285C-344.87,36.01 -357.1,34.417 -373.719,37.677C-377.682,38.458 -381.525,35.873 -382.302,31.91C-383.08,27.947 -380.497,24.103 -376.534,23.326C-354.635,19.027 -338.337,21.901 -328.093,31.86C-319.612,40.106 -317.651,51.074 -317.413,58.39C-302.652,60.263 -291.865,65.302 -285.291,73.416C-281.782,77.746 -280.117,82.171 -279.361,85.834L-262.886,85.834C-262.092,81.987 -260.296,77.299 -256.412,72.766C-247.766,62.675 -232.391,57.559 -210.714,57.559L-177.564,57.559C-173.525,57.559 -170.251,60.833 -170.251,64.871C-170.251,68.91 -173.525,72.184 -177.564,72.184L-210.714,72.184C-231.876,72.184 -241.093,77.546 -245.099,82.044C-246.233,83.319 -247.029,84.615 -247.585,85.834L-159.038,85.834C-159.024,85.834 -159.01,85.836 -158.996,85.836L-24.976,85.836C-19.04,85.836 -13.153,84.695 -7.648,82.511C-9.145,77.181 -8.87,71.435 -6.718,66.16L13.688,16.124C7.878,5.859 0.085,0.974 0,0.922" style="fill:#f7941e;fill-rule:nonzero;"/>
        </g>
        <g transform="matrix(1,0,0,1,281.777,517.594)">
            <path d="M0,-35.344C0,-35.344 -2.316,-22.547 10.116,-22.547C22.547,-22.547 38.513,-23.278 39.366,-8.043C39.366,1.707 45.216,2.438 49.36,1.707C53.504,0.975 49.36,-23.156 49.36,-23.156L45.704,-31.444L37.051,-36.319L31.444,-37.782L0,-35.344Z" style="fill:#fff200;fill-rule:nonzero;"/>
        </g>
        <g transform="matrix(1,0,0,1,476.537,531.733)">
            <path d="M0,-21.207C0,-21.207 -3.413,-31.201 -19.988,-31.201L-53.992,-31.201C-70.752,-31.201 -84.339,-17.614 -84.339,-0.854L-84.339,9.994L0,-21.207Z" style="fill:#f15a29;fill-rule:nonzero;"/>
        </g>
        <g transform="matrix(0,1,1,0,371.601,499.191)">
            <path d="M1.34,-42.536L40.584,-42.536L42.536,1.34C42.536,1.34 26.447,-0.123 26.447,-0.853L1.34,-42.536Z" style="fill:#fff;fill-rule:nonzero;"/>
        </g>
        <g transform="matrix(1,0,0,1,281.436,400.585)">
            <path d="M0,61.08C14.296,52.4 28.653,51.187 46.831,49.652C56.353,48.848 67.145,47.936 79.67,45.785C104.043,41.6 107.527,8.483 107.859,-6.208L84.924,-6.208C43.013,-6.208 -4.476,20.764 -21.274,62.915C-17.308,65.358 -10.227,67.288 0,61.08" style="fill:#fff;fill-rule:nonzero;"/>
        </g>
        <g transform="matrix(1,0,0,1,224.932,472.89)">
            <path d="M0,-39.403C-3.574,-39.355 -7.753,-38.654 -12.427,-37.318C-13.371,-32.168 -13.763,-27.021 -13.604,-21.694C-13.373,-13.906 -11.977,-6.645 -9.452,0C-4.85,-4.112 -0.752,-8.335 2.625,-12.444C-1.94,-19.041 -2.86,-28.356 0,-39.403" style="fill:#fff;fill-rule:nonzero;"/>
        </g>
        <g transform="matrix(0,-1,-1,0,640.402,338.245)">
            <path d="M-37.654,0.55L0.55,0.55L-16.203,37.654C-19.08,28.81 -23.085,20.095 -28.575,11.945C-31.32,7.87 -34.352,4.075 -37.654,0.55" style="fill:#f7941e;fill-rule:nonzero;"/>
        </g>
        <g transform="matrix(1,0,0,1,472.003,362.826)">
            <path d="M0,13.118C0.975,5.4 -2.188,-2.532 -5.755,-8.716L-3.179,21.834C-1.45,19.151 -0.396,16.256 0,13.118" style="fill:#f7941e;fill-rule:nonzero;"/>
        </g>
        <g transform="matrix(1,0,0,1,567.684,366.5)">
            <path d="M0,71.599C-0.241,75.475 -3.459,78.458 -7.291,78.458C-7.444,78.458 -7.598,78.451 -7.751,78.443L-54.552,75.518C-58.582,75.263 -61.646,71.796 -61.397,67.76C-61.141,63.731 -57.675,60.666 -53.638,60.922L-6.837,63.848C-2.808,64.096 0.256,67.57 0,71.599M13.616,36.491C13.324,30.89 13.177,24.835 13.177,17.983L13.177,-2.215C-18.947,-7.261 -49.097,0.579 -49.529,0.696C-51.21,1.149 -52.995,0.981 -54.567,0.228L-92.9,-18.069C-88.373,-10.354 -84.19,0.023 -85.521,10.685C-86.567,19.087 -90.801,26.348 -98.106,32.337C-98.326,33.171 -98.699,33.961 -99.203,34.677C-99.276,34.78 -105.061,43.233 -107.766,56.937C-106.048,60.52 -102.867,65.742 -97.339,70.919C-84.22,83.182 -63.788,89.668 -38.252,89.668C-20.666,89.668 -7.32,85.003 1.411,75.796C13.623,62.926 14.018,44.023 13.616,36.491" style="fill:#fff;fill-rule:nonzero;"/>
        </g>
        <g transform="matrix(1,0,0,1,230.322,327.034)">
            <path d="M0,92.147C2.945,86.068 6.687,79.978 11.012,74.264C13.749,70.651 16.964,66.802 20.367,62.726C40.96,38.065 55.735,17.42 42.032,-0.374C41.133,6.638 39.109,13.118 35.962,18.998C30.356,29.465 20.949,37.686 12.877,43.849C10.129,51.676 5.447,59.282 0.62,67.121C-4.298,75.108 -9.327,83.293 -13.08,92.521C-8.327,91.772 -3.958,91.642 0,92.147" style="fill:#f7941e;fill-rule:nonzero;"/>
        </g>
        <g transform="matrix(1,0,0,1,773.981,370.508)">
            <path d="M0,-10.033C-4.695,-10.033 -8.497,-13.843 -8.497,-18.538C-8.497,-23.233 -4.695,-27.035 0,-27.035C4.695,-27.035 8.505,-23.233 8.505,-18.538C8.505,-13.843 4.695,-10.033 0,-10.033ZM-30.472,-10.033C-35.166,-10.033 -38.976,-13.843 -38.976,-18.538C-38.976,-23.233 -35.166,-27.035 -30.472,-27.035C-25.777,-27.035 -21.967,-23.233 -21.967,-18.538C-21.967,-13.843 -25.777,-10.033 -30.472,-10.033ZM-60.943,-10.033C-65.638,-10.033 -69.448,-13.843 -69.448,-18.538C-69.448,-23.233 -65.638,-27.035 -60.943,-27.035C-56.249,-27.035 -52.446,-23.233 -52.446,-18.538C-52.446,-13.843 -56.249,-10.033 -60.943,-10.033ZM-2.333,-48.673L-58.611,-48.673C-68.029,-48.673 -76.556,-44.863 -82.735,-38.684C-88.907,-32.505 -92.724,-23.978 -92.724,-14.56C-92.724,2.011 -80.907,15.832 -65.236,18.918L-65.236,38.64L-43.627,19.561L-2.333,19.561C7.086,19.561 15.613,15.744 21.792,9.572C27.964,3.393 31.781,-5.134 31.781,-14.56C31.781,-33.397 16.505,-48.673 -2.333,-48.673Z" style="fill:none;fill-rule:nonzero;stroke:#fff;stroke-width:0.48px;"/>
        </g>
        <g transform="matrix(1,0,0,1,749.059,531.203)">
            <path d="M0,-81.55C-2.004,-84.533 -5.221,-86.245 -8.819,-86.245L-42.603,-86.245C-46.947,-86.245 -50.808,-83.649 -52.446,-79.634L-81.551,-8.255C-82.911,-4.928 -82.538,-1.301 -80.534,1.682C-80.527,1.69 -80.52,1.697 -80.52,1.704C-80.49,1.734 -80.468,1.77 -80.439,1.807C-79.62,2.984 -78.618,3.957 -77.47,4.695C-79.284,1.785 -79.569,-1.674 -78.267,-4.877L-49.156,-76.255C-47.518,-80.27 -43.656,-82.866 -39.32,-82.866L-5.528,-82.866C-3.422,-82.866 -1.455,-82.281 0.219,-81.191C0.161,-81.309 0.08,-81.433 0,-81.55" style="fill:#f9ed32;fill-rule:nonzero;"/>
        </g>
        <g transform="matrix(1,0,0,1,720.35,521.616)">
            <path d="M0,-57.316C-0.841,-52.212 -5.653,-48.08 -10.75,-48.08C-12.161,-48.08 -13.448,-48.395 -14.545,-48.965C-17.433,-50.442 -19.071,-53.623 -18.464,-57.316C-17.631,-62.413 -12.819,-66.545 -7.715,-66.545C-4.453,-66.545 -1.857,-64.848 -0.644,-62.289C0.044,-60.855 0.3,-59.152 0,-57.316M28.929,-71.605C27.254,-72.695 25.287,-73.28 23.181,-73.28L-10.611,-73.28C-14.947,-73.28 -18.808,-70.684 -20.446,-66.669L-49.558,4.71C-50.859,7.913 -50.574,11.372 -48.761,14.282C-47.086,15.379 -45.112,15.964 -43.006,15.964L-17.982,15.964C-19.751,13.909 -20.98,11.759 -21.836,9.777C-27.086,-2.449 -22.018,-17.733 -14.662,-27.444C-5.66,-39.342 10.479,-40.299 20.563,-39.532L28.768,-59.656C28.79,-59.715 28.812,-59.766 28.834,-59.817L29.733,-62.025C31.035,-65.221 30.75,-68.694 28.929,-71.605" style="fill:#39b54a;fill-rule:nonzero;"/>
        </g>
        <g transform="matrix(1,0,0,1,754.339,498.245)">
            <path d="M0,18.779C-5.616,27.671 -15.415,33.638 -25.031,34.421C-26.684,34.56 -28.329,34.545 -29.945,34.362C-31.422,34.194 -32.768,33.945 -33.996,33.616C-30.757,32.666 -26.998,31.51 -23.422,30.296C-22.318,29.923 -21.236,29.551 -20.19,29.17C-17.528,28.212 -16.146,25.28 -17.112,22.618C-17.836,20.629 -19.664,19.349 -21.66,19.247C-22.318,19.211 -22.998,19.305 -23.664,19.547C-30.34,21.953 -38.859,24.395 -42.962,25.536C-43.488,23.276 -43.437,20.593 -42.889,17.77C-39.591,17.061 -30.011,14.933 -22.07,12.593C-21.762,12.505 -21.455,12.417 -21.148,12.322C-18.442,11.503 -16.907,8.651 -17.726,5.945C-18.538,3.232 -21.397,1.704 -24.102,2.516C-24.22,2.552 -24.336,2.589 -24.453,2.618C-28.805,3.92 -33.865,5.192 -38.004,6.165C-37.675,5.682 -37.338,5.214 -36.995,4.746C-34.443,1.375 -30.223,-0.314 -25.865,-1.097C-23.364,-1.55 -20.819,-1.704 -18.508,-1.704C-14.757,-1.704 -11.642,-1.301 -10.406,-1.111C-7.569,-0.687 -4.76,-1.726 -2.881,-3.883C-1.821,-5.104 -1.155,-6.559 -0.921,-8.095L2.208,-15.781C6.823,-2.859 6.128,9.09 0,18.779" style="fill:#f7941e;fill-rule:nonzero;"/>
        </g>
        <g transform="matrix(1,0,0,1,451.552,544.651)">
            <path d="M0,-28.154L0,0L-50.457,0L-41.682,-20.476L-28.885,-26.326L0,-28.154Z" style="fill:#fff;fill-rule:nonzero;"/>
        </g>
        <g transform="matrix(1,0,0,1,425.227,455.817)">
            <path d="M0,-66.194C0,-66.194 -10.786,-17.719 26.325,2.011C28.154,-32.556 27.971,-32.001 27.971,-33.192C27.971,-34.384 35.649,-53.945 35.832,-56.322C36.015,-58.699 34.369,-64.549 33.821,-65.28C33.272,-66.011 31.81,-68.205 31.81,-68.205L0,-66.194Z" style="fill:#f15a29;fill-rule:nonzero;"/>
        </g>
        <g transform="matrix(1,0,0,1,247.456,541.726)">
            <path d="M0,-32.176L12.523,-32.176C21.829,-32.176 30.489,-27.182 34.924,-19.001C39.742,-10.114 49.188,0 67.228,0L21.158,0L6.289,-12.188L0,-32.176Z" style="fill:#f15a29;fill-rule:nonzero;"/>
        </g>
        <g transform="matrix(1,0,0,1,582.814,515.4)">
            <path d="M0,-153.565C0,-153.565 57.526,-115.413 57.039,-63.678C57.294,-63.423 57.551,-63.16 57.809,-62.888C83.392,-36.004 63.794,8.532 26.682,8.532L-54.5,8.532C-68.873,8.532 -82.926,12.773 -94.899,20.724L-107.74,29.251L65.57,26.326L77.156,11.944L87.264,-27.01L95.064,-52.468L93.114,-62.157L78.976,-78.245L59.476,-130.741L64.176,-142.352L59.72,-182.816C59.72,-182.816 33.591,-146.997 33.371,-146.016L0,-153.565Z" style="fill:#f15a29;fill-rule:nonzero;"/>
        </g>
        <g transform="matrix(-1,0,0,1,399.83,389.623)">
            <path d="M-58.669,12.675L2.574,12.675L1.66,1.28L-61.243,0L-58.669,12.675Z" style="fill:#fff200;fill-rule:nonzero;"/>
        </g>
        <g transform="matrix(-0.167292,-0.985907,-0.985907,0.167292,722.06,494.086)">
            <path d="M-7.991,-6.581C-8.546,-2.074 -8.955,3.128 -9.221,7.371C-8.8,6.966 -8.395,6.556 -7.991,6.139C-5.095,3.059 -4.134,-1.383 -4.093,-5.812C-5.251,-6.082 -6.558,-6.357 -7.991,-6.581" style="fill:#fff;fill-rule:nonzero;"/>
        </g>
        <g transform="matrix(-0.0893236,0.996003,0.996003,0.0893236,724.918,525.301)">
            <path d="M6.943,-3.971C5.706,-0.83 4.22,2.811 2.692,6.264C4.1,5.95 5.518,5.541 6.943,5.03C7.229,3.397 7.362,1.756 7.324,0.13C7.289,-1.356 7.161,-2.719 6.943,-3.971" style="fill:#fff;fill-rule:nonzero;"/>
        </g>
        <g transform="matrix(1,0,0,1,732.679,517.127)">
            <path d="M0,0.365C-0.658,0.329 -1.338,0.424 -2.004,0.665C-8.68,3.071 -17.199,5.513 -21.302,6.654C-21.828,4.394 -21.777,1.711 -21.229,-1.112C-17.931,-1.821 -8.351,-3.949 -0.409,-6.289C-0.124,-4.169 0.037,-1.938 0,0.365" style="fill:#fff;fill-rule:nonzero;"/>
        </g>
        <g transform="matrix(1,0,0,1,671.053,467.869)">
            <path d="M0,72.882L26.805,9.488C30.799,0.043 40.058,-6.094 50.313,-6.094L83.12,-6.094L74.589,18.769C74.589,18.769 48.751,20.812 48.02,20.522C47.288,20.231 35.344,31.444 35.344,31.444C35.344,31.444 30.451,40.463 30.704,44.85C30.957,49.238 36.319,72.882 36.319,72.882L30.704,78.976" style="fill:#009444;fill-rule:nonzero;"/>
        </g>
        <g transform="matrix(0.941137,-0.338026,-0.338026,-0.941137,649.33,476.369)">
            <path d="M-0.812,4.662L26.772,4.662" style="fill:none;fill-rule:nonzero;stroke:#fff;stroke-width:3.84px;"/>
        </g>
        <g transform="matrix(0.941137,0.338026,0.338026,-0.941137,649.33,485.876)">
            <path d="M-0.812,-4.662L26.772,-4.662" style="fill:none;fill-rule:nonzero;stroke:#fff;stroke-width:3.84px;"/>
        </g>
        <g transform="matrix(1,0,0,1,651.56,480.483)">
            <path d="M0,0L25.411,0" style="fill:none;fill-rule:nonzero;stroke:#fff;stroke-width:3.84px;"/>
        </g>
        <g transform="matrix(1,0,0,1,513.131,430.102)">
            <path d="M0,11.914L46.801,14.839C46.956,14.849 47.11,14.853 47.264,14.853C51.094,14.853 54.313,11.872 54.555,7.997C54.807,3.966 51.744,0.494 47.713,0.242L0.912,-2.683C-3.12,-2.939 -6.59,0.129 -6.842,4.159C-7.094,8.191 -4.031,11.662 0,11.914" style="fill-rule:nonzero;"/>
        </g>
        <g transform="matrix(1,0,0,1,754.339,325.145)">
            <path d="M0,191.878C-6.583,202.291 -18.897,208.699 -29.945,207.461C-31.419,207.296 -32.765,207.045 -33.997,206.719C-29.761,205.47 -24.642,203.881 -20.186,202.273C-17.527,201.313 -16.149,198.379 -17.109,195.72C-18.069,193.061 -21.003,191.684 -23.662,192.644C-30.341,195.054 -38.861,197.494 -42.964,198.633C-43.486,196.374 -43.439,193.694 -42.887,190.869C-39.456,190.128 -29.251,187.863 -21.148,185.421C-18.442,184.605 -16.909,181.749 -17.725,179.042C-18.541,176.335 -21.396,174.802 -24.103,175.619C-28.537,176.955 -33.753,178.262 -38.001,179.265C-37.677,178.784 -37.341,178.311 -36.991,177.849C-32.978,172.547 -24.834,171.393 -18.505,171.393C-14.754,171.393 -11.64,171.798 -10.404,171.985C-7.571,172.414 -4.757,171.378 -2.878,169.215C-1.82,167.998 -1.157,166.537 -0.924,165.003L2.21,157.318C6.821,170.241 6.126,182.189 0,191.878M-48.654,169.024C-56.007,178.74 -61.076,194.018 -55.824,206.245C-54.97,208.234 -53.74,210.38 -51.971,212.437L-76.993,212.437C-80.539,212.437 -83.707,210.767 -85.719,207.862C-85.744,207.826 -85.771,207.794 -85.797,207.759C-85.802,207.752 -85.808,207.746 -85.812,207.739C-87.819,204.753 -88.191,201.13 -86.833,197.799L-57.724,126.424C-56.086,122.407 -52.224,119.811 -47.885,119.811L-14.097,119.811C-10.5,119.811 -7.285,121.523 -5.278,124.509C-3.271,127.495 -2.9,131.117 -4.258,134.449L-5.156,136.65C-5.179,136.704 -5.201,136.758 -5.222,136.813L-13.429,156.936C-23.511,156.175 -39.652,157.129 -48.654,169.024M-100.375,192.276C-102.526,197.551 -102.802,203.297 -101.305,208.627C-106.81,210.81 -112.697,211.952 -118.633,211.952L-252.653,211.952C-252.667,211.952 -252.681,211.95 -252.695,211.95L-341.241,211.95C-340.686,210.73 -339.89,209.435 -338.756,208.16C-334.75,203.662 -325.533,198.299 -304.371,198.299L-271.22,198.299C-267.182,198.299 -263.908,195.025 -263.908,190.987C-263.908,186.948 -267.182,183.674 -271.22,183.674L-304.371,183.674C-326.048,183.674 -341.423,188.791 -350.069,198.881C-353.953,203.414 -355.749,208.102 -356.543,211.95L-373.018,211.95C-373.774,208.286 -375.439,203.861 -378.948,199.531C-385.522,191.418 -396.309,186.379 -411.07,184.506C-411.307,177.19 -413.269,166.222 -421.75,157.976C-431.993,148.016 -448.291,145.143 -470.191,149.442C-474.154,150.219 -476.737,154.062 -475.959,158.026C-475.182,161.989 -471.339,164.573 -467.375,163.793C-450.756,160.532 -438.527,162.125 -432.008,168.4C-423.854,176.25 -425.881,189.855 -425.897,189.956C-426.24,192.008 -425.693,194.109 -424.393,195.733C-423.093,197.357 -421.163,198.35 -419.086,198.464C-405.281,199.223 -395.399,202.694 -390.506,208.502C-389.527,209.665 -388.821,210.839 -388.315,211.95L-389.441,211.95C-389.456,211.95 -389.469,211.952 -389.484,211.952L-476.681,211.952C-477.271,211.908 -481.526,211.506 -486.157,208.677C-492.73,204.663 -497.131,197.694 -499.238,187.962C-499.779,185.462 -501.614,183.418 -504.034,182.586C-504.212,182.524 -520.384,176.81 -531.765,160.968C-525.228,155.401 -519.519,149.622 -514.907,143.893C-513.869,144.235 -512.786,144.525 -511.66,144.763C-512.941,149.581 -513.879,154.484 -514.441,159.451C-514.895,163.464 -512.01,167.086 -507.997,167.54C-507.718,167.571 -507.44,167.587 -507.166,167.587C-503.495,167.587 -500.331,164.83 -499.908,161.096C-499.409,156.684 -498.58,152.39 -497.46,148.22C-494.218,149.814 -490.302,150.917 -485.809,150.917C-480.476,150.917 -474.34,149.37 -467.589,145.271C-455.349,137.839 -442.707,136.771 -425.21,135.293C-415.483,134.472 -404.458,133.54 -391.5,131.315C-374.509,128.397 -362.796,115.122 -357.628,92.924C-355.521,83.879 -354.918,75.169 -354.795,69.231L-299.372,69.231L-299.311,69.956C-303.082,76.298 -312.252,94.599 -310.099,119.643L-310.099,136.142C-310.099,140.18 -306.825,143.455 -302.787,143.455C-298.748,143.455 -295.474,140.18 -295.474,136.142L-295.474,119.323C-295.474,119.104 -295.484,118.887 -295.503,118.67C-295.622,117.346 -295.694,116.051 -295.739,114.773C-294.488,116.238 -293.1,117.725 -291.552,119.209C-281.061,129.269 -260.983,141.261 -224.907,141.261C-204.399,141.261 -188.555,135.52 -177.815,124.198C-163.409,109.011 -162.232,88.299 -162.813,77.303C-163.099,71.886 -163.238,66.009 -163.238,59.336L-163.238,41.202C-153.131,43.711 -143.117,47.698 -134.052,53.804C-117.967,64.64 -106.87,80.917 -100.923,102.331L-146.827,105.2C-150.858,105.452 -153.921,108.923 -153.669,112.954C-153.427,116.83 -150.208,119.811 -146.378,119.811C-146.224,119.811 -146.07,119.806 -145.914,119.796L-99.114,116.871C-98.675,116.844 -98.25,116.772 -97.837,116.671C-97.574,118.321 -97.333,119.99 -97.121,121.689C-96.843,123.923 -95.589,125.882 -93.657,127.038C-93.572,127.09 -85.778,131.974 -79.969,142.239L-100.375,192.276ZM-538.858,147.746C-541.383,141.1 -542.779,133.839 -543.01,126.051C-543.17,120.724 -542.777,115.577 -541.833,110.427C-537.159,109.091 -532.981,108.391 -529.406,108.342C-532.267,119.389 -531.346,128.705 -526.781,135.301C-530.158,139.41 -534.256,143.634 -538.858,147.746M-523.396,69.009C-518.57,61.171 -513.888,53.564 -511.14,45.738C-503.068,39.574 -493.661,31.354 -488.055,20.887C-484.908,15.006 -482.883,8.527 -481.985,1.514C-468.281,19.309 -483.057,39.953 -503.65,64.615C-507.053,68.69 -510.268,72.539 -513.005,76.153C-517.33,81.866 -521.072,87.956 -524.017,94.035C-527.975,93.53 -532.344,93.66 -537.097,94.409C-533.344,85.182 -528.314,76.997 -523.396,69.009M-543.893,6.261C-544.857,6.514 -545.828,6.643 -546.78,6.643C-551.865,6.643 -556.246,3.218 -557.436,-1.686C-558.137,-4.573 -557.656,-7.55 -556.082,-10.069C-554.514,-12.578 -552.063,-14.307 -549.178,-14.938C-533.953,-18.277 -513.441,-19.701 -496.155,-10.18C-495.69,-0.961 -497.294,7.156 -500.948,13.983C-503.085,17.973 -506.103,21.66 -509.437,25.007C-509.479,24.812 -509.515,24.618 -509.56,24.422C-511.32,16.895 -514.996,11.402 -520.484,8.097C-526.614,4.407 -534.49,3.789 -543.893,6.261M-387.979,69.231L-365.043,69.231C-365.376,83.923 -368.859,117.039 -393.233,121.225C-405.758,123.376 -416.55,124.288 -426.072,125.092C-444.249,126.627 -458.607,127.84 -472.902,136.52C-483.129,142.728 -490.211,140.798 -494.176,138.355C-477.379,96.204 -429.889,69.231 -387.979,69.231M-285.859,76.031C-285.352,75.317 -284.982,74.525 -284.758,73.693C-277.453,67.7 -273.222,60.44 -272.173,52.039C-270.842,41.378 -275.027,31.004 -279.552,23.283L-241.221,41.586C-239.65,42.335 -237.862,42.5 -236.181,42.05C-235.754,41.936 -205.605,34.098 -173.476,39.141L-173.476,59.336C-173.476,66.191 -173.332,72.244 -173.036,77.843C-172.639,85.374 -173.032,104.28 -185.242,117.151C-193.973,126.356 -207.319,131.023 -224.907,131.023C-250.444,131.023 -270.875,124.539 -283.991,112.27C-289.521,107.097 -292.699,101.873 -294.422,98.29C-291.715,84.589 -285.93,76.132 -285.859,76.031M-282.336,50.799C-282.732,53.937 -283.786,56.832 -285.514,59.515L-288.09,28.965C-284.524,35.149 -281.361,43.081 -282.336,50.799M-114.486,12.549L-114.486,50.754C-118.012,47.452 -121.806,44.42 -125.881,41.675C-134.032,36.185 -142.746,32.179 -151.59,29.302L-114.486,12.549ZM6.86,116.351C2.161,109.359 -5.674,105.185 -14.097,105.185L-47.885,105.185C-58.196,105.185 -67.373,111.354 -71.267,120.9L-73.382,126.087C-77.036,121.642 -80.612,118.53 -83.041,116.66C-85.748,97.882 -91.379,81.774 -99.861,68.439L-99.861,11.778C-99.861,6.96 -102.277,2.523 -106.325,-0.09C-110.373,-2.704 -115.411,-3.079 -119.802,-1.098L-175.465,24.035C-203.602,20.433 -229.043,25.372 -237.271,27.264L-283.427,5.227C-288.053,3.021 -293.331,3.443 -297.546,6.356C-301.761,9.268 -304.022,14.054 -303.594,19.163L-300.605,54.606L-387.979,54.606C-416.334,54.606 -446.14,65.147 -469.755,83.525C-486.611,96.642 -499.252,112.859 -506.845,130.741C-509.425,130.426 -511.516,129.75 -512.996,128.722C-519.831,123.982 -514.723,109.544 -512.993,105.229C-510.328,98.575 -506.191,91.383 -501.346,84.982C-498.82,81.647 -495.713,77.927 -492.424,73.989C-482.337,61.909 -470.904,48.218 -465.31,33.405C-458.207,14.593 -462.311,-1.657 -477.508,-14.893C-500.801,-35.184 -531.042,-33.887 -552.307,-29.225C-559.068,-27.745 -564.813,-23.695 -568.484,-17.82C-572.162,-11.935 -573.286,-4.979 -571.649,1.763C-568.863,13.247 -558.636,21.268 -546.78,21.268C-544.574,21.268 -542.352,20.978 -540.174,20.405C-536.434,19.422 -531.291,18.662 -528.029,20.626C-526.023,21.834 -524.64,24.164 -523.802,27.752C-521.426,37.914 -527.791,48.253 -535.85,61.341C-543.017,72.98 -551.131,86.167 -555.163,102.8C-555.168,102.819 -555.172,102.839 -555.178,102.858C-555.192,102.917 -555.209,102.974 -555.223,103.033C-557.082,110.806 -557.869,118.478 -557.629,126.486C-557.229,139.966 -553.916,152.266 -547.787,163.035C-536.917,182.189 -520.12,191.486 -512.578,194.879C-505.625,219.34 -486.57,226.353 -477.034,226.575C-476.978,226.577 -476.921,226.577 -476.864,226.577L-379.847,226.577C-379.831,226.577 -379.816,226.575 -379.8,226.575L-252.737,226.575C-252.723,226.575 -252.709,226.577 -252.695,226.577L-118.633,226.577C-109.889,226.577 -101.227,224.697 -93.27,221.106C-88.773,224.903 -83.038,227.062 -76.993,227.062L-43.206,227.062C-37.802,227.062 -32.632,225.363 -28.334,222.223C-12.661,222.682 3.369,213.917 12.362,199.693C18.758,189.577 26.636,168.483 9.708,138.858C12.371,131.34 11.336,123.011 6.86,116.351" style="fill-rule:nonzero;"/>
        </g>
        <g transform="matrix(-0.986758,-0.162197,-0.162197,0.986758,708.12,473.167)">
            <path d="M-1.518,-18.588C3.514,-17.761 7.593,-12.902 7.593,-7.735C7.593,-2.567 3.514,0.951 -1.518,0.124C-6.549,-0.703 -10.627,-5.562 -10.628,-10.729C-10.628,-15.897 -6.549,-19.415 -1.518,-18.588" style="fill-rule:nonzero;"/>
        </g>
        <g transform="matrix(1,0,0,1,795.772,350.903)">
            <path d="M0,29.177C-6.179,35.349 -14.706,39.166 -24.124,39.166L-65.419,39.166L-87.028,58.245L-87.028,38.523C-102.699,35.437 -114.516,21.616 -114.516,5.045C-114.516,-4.373 -110.699,-12.9 -104.527,-19.079C-98.348,-25.258 -89.821,-29.068 -80.402,-29.068L-24.124,-29.068C-5.287,-29.068 9.989,-13.792 9.989,5.045C9.989,14.471 6.172,22.998 0,29.177M-24.124,-42.004L-80.402,-42.004C-92.965,-42.004 -104.783,-37.112 -113.675,-28.227C-122.56,-19.335 -127.452,-7.518 -127.452,5.045C-127.452,23.736 -116.373,40.336 -99.964,47.846L-99.964,58.245C-99.964,63.334 -96.987,67.949 -92.351,70.04C-90.64,70.808 -88.834,71.181 -87.028,71.181C-83.934,71.181 -80.878,70.077 -78.465,67.941L-60.527,52.102L-24.124,52.102C-11.561,52.102 0.256,47.21 9.148,38.318C18.033,29.433 22.925,17.616 22.925,5.045C22.925,-20.9 1.821,-42.004 -24.124,-42.004" style="fill-rule:nonzero;"/>
        </g>
        <g transform="matrix(1,0,0,1,805.761,375.035)">
            <path d="M0,-19.086C0,-9.66 -3.817,-1.133 -9.989,5.046C-16.168,11.217 -24.695,15.035 -34.113,15.035L-75.408,15.035L-97.017,34.113L-97.017,14.391C-112.688,11.305 -124.505,-2.516 -124.505,-19.086C-124.505,-28.505 -120.688,-37.031 -114.516,-43.21C-108.337,-49.39 -99.81,-53.199 -90.391,-53.199L-34.113,-53.199C-15.276,-53.199 0,-37.923 0,-19.086" style="fill:#fff;fill-rule:nonzero;"/>
        </g>
        <g transform="matrix(-1,0,0,1,713.036,360.475)">
            <path d="M0,-17.002C4.695,-17.002 8.501,-13.196 8.501,-8.501C8.501,-3.806 4.695,0 0,0C-4.695,0 -8.501,-3.806 -8.501,-8.501C-8.501,-13.196 -4.695,-17.002 0,-17.002" style="fill-rule:nonzero;"/>
        </g>
        <g transform="matrix(-1,0,0,1,743.509,360.475)">
            <path d="M0,-17.002C4.695,-17.002 8.501,-13.196 8.501,-8.501C8.501,-3.806 4.695,0 0,0C-4.695,0 -8.501,-3.806 -8.501,-8.501C-8.501,-13.196 -4.695,-17.002 0,-17.002" style="fill-rule:nonzero;"/>
        </g>
        <g transform="matrix(-1,0,0,1,773.982,360.475)">
            <path d="M0,-17.002C4.695,-17.002 8.501,-13.196 8.501,-8.501C8.501,-3.806 4.695,0 0,0C-4.695,0 -8.501,-3.806 -8.501,-8.501C-8.501,-13.196 -4.695,-17.002 0,-17.002" style="fill-rule:nonzero;"/>
        </g>
        <g transform="matrix(-0.707107,-0.707107,-0.707107,0.707107,614.556,462.036)">
            <path d="M13.507,20.141L26.759,20.141C26.759,4.289 13.909,-8.562 -1.943,-8.562L-1.943,4.691C-1.944,13.224 4.973,20.141 13.507,20.141" style="fill-rule:nonzero;"/>
        </g>
        <g transform="matrix(1,0,0,1,586.105,473.08)">
            <path d="M0,30.62C-11.233,30.62 -17.054,23.825 -17.708,17.512C-18.414,10.696 -13.491,2.638 -0.9,0L-0.22,3.247C0.372,6.069 -1.124,8.863 -3.741,10.074C-7.608,11.863 -9.205,14.433 -8.979,16.607C-8.718,19.13 -5.796,21.845 0,21.845C3.857,21.845 6.742,20.859 8.576,18.916C11.333,15.995 11.206,11.539 11.204,11.496L19.964,10.987C20.013,11.821 20.283,19.296 14.958,24.939C11.401,28.709 6.368,30.62 0,30.62" style="fill-rule:nonzero;"/>
        </g>
        <g transform="matrix(1,0,0,1,617.288,473.08)">
            <path d="M0,30.62C-6.368,30.62 -11.401,28.709 -14.958,24.939C-20.283,19.296 -20.013,11.821 -19.964,10.987L-11.204,11.496L-15.584,11.241L-11.202,11.461C-11.204,11.506 -11.357,16.018 -8.532,18.963C-6.697,20.875 -3.827,21.845 0,21.845C5.797,21.845 8.718,19.13 8.979,16.607C9.205,14.433 7.608,11.863 3.741,10.074C1.124,8.863 -0.372,6.069 0.22,3.247L0.9,0C13.491,2.638 18.414,10.696 17.708,17.512C17.054,23.825 11.233,30.62 0,30.62" style="fill-rule:nonzero;"/>
        </g>
        <g transform="matrix(-1,0,0,1,1203.38,-49.455)">
            <rect x="597.301" y="515.678" width="8.775" height="18.099"/>
        </g>
        <g transform="matrix(-0.941137,-0.338026,-0.338026,0.941137,533.234,458.819)">
            <path d="M-26.772,4.662L0.812,4.662" style="fill:none;fill-rule:nonzero;stroke:#fff;stroke-width:3.84px;"/>
        </g>
        <g transform="matrix(-0.941137,0.338026,0.338026,0.941137,533.234,503.426)">
            <path d="M-26.772,-4.662L0.812,-4.662" style="fill:none;fill-rule:nonzero;stroke:#fff;stroke-width:3.84px;"/>
        </g>
        <g transform="matrix(-1,0,0,1,526.873,480.483)">
            <path d="M-25.411,0L0,0" style="fill:none;fill-rule:nonzero;stroke:#fff;stroke-width:3.84px;"/>
        </g>
        <g transform="matrix(0.98257,-0.185893,-0.185893,-0.98257,589.165,459.255)">
            <path d="M-0.287,1.507C-0.287,1.507 8.646,4.468 15.776,1.507" style="fill:none;fill-rule:nonzero;stroke:#fff;stroke-width:1.92px;"/>
        </g>
        <g transform="matrix(0.656824,0,0,0.656824,46.4944,199.511)">
            <g transform="matrix(160,0,0,160,230.327,699.155)">
                <path d="M0.525,-0.26C0.525,-0.215 0.517,-0.176 0.502,-0.143C0.486,-0.109 0.465,-0.082 0.438,-0.06C0.411,-0.037 0.38,-0.021 0.344,-0.01C0.308,0.001 0.269,0.007 0.228,0.007C0.212,0.007 0.195,0.005 0.176,0C0.156,-0.004 0.137,-0.009 0.118,-0.015C0.098,-0.022 0.079,-0.029 0.061,-0.036C0.043,-0.043 0.027,-0.05 0.013,-0.057L0.035,-0.258C0.062,-0.241 0.093,-0.229 0.127,-0.22C0.16,-0.211 0.194,-0.207 0.226,-0.207C0.232,-0.207 0.24,-0.207 0.249,-0.208C0.257,-0.208 0.266,-0.21 0.274,-0.212C0.282,-0.215 0.288,-0.218 0.294,-0.223C0.299,-0.228 0.302,-0.235 0.302,-0.244C0.302,-0.25 0.3,-0.256 0.296,-0.26C0.292,-0.264 0.287,-0.268 0.281,-0.271C0.275,-0.274 0.268,-0.276 0.26,-0.277C0.252,-0.279 0.245,-0.28 0.237,-0.28C0.23,-0.281 0.223,-0.281 0.216,-0.281L0.201,-0.281C0.173,-0.281 0.147,-0.286 0.124,-0.296C0.101,-0.306 0.082,-0.319 0.065,-0.337C0.049,-0.354 0.036,-0.375 0.027,-0.399C0.018,-0.423 0.013,-0.449 0.013,-0.477C0.013,-0.515 0.021,-0.549 0.036,-0.58C0.052,-0.61 0.073,-0.636 0.098,-0.657C0.124,-0.679 0.154,-0.695 0.188,-0.707C0.221,-0.718 0.256,-0.724 0.292,-0.724C0.307,-0.724 0.324,-0.723 0.341,-0.722C0.358,-0.721 0.375,-0.719 0.391,-0.716C0.408,-0.713 0.424,-0.709 0.44,-0.705C0.456,-0.7 0.472,-0.694 0.486,-0.688L0.467,-0.489C0.445,-0.497 0.422,-0.503 0.398,-0.508C0.373,-0.513 0.35,-0.516 0.327,-0.516C0.322,-0.516 0.317,-0.516 0.31,-0.515C0.304,-0.515 0.297,-0.515 0.289,-0.514C0.282,-0.513 0.275,-0.512 0.267,-0.51C0.26,-0.509 0.253,-0.506 0.247,-0.504C0.241,-0.501 0.236,-0.497 0.233,-0.493C0.229,-0.488 0.228,-0.483 0.228,-0.477C0.228,-0.469 0.231,-0.464 0.236,-0.459C0.241,-0.455 0.248,-0.451 0.256,-0.449C0.264,-0.447 0.272,-0.445 0.282,-0.444C0.292,-0.443 0.301,-0.442 0.311,-0.442C0.32,-0.442 0.329,-0.442 0.337,-0.442C0.345,-0.442 0.352,-0.442 0.357,-0.441C0.383,-0.44 0.406,-0.434 0.427,-0.425C0.448,-0.415 0.466,-0.403 0.48,-0.387C0.495,-0.372 0.506,-0.353 0.513,-0.331C0.521,-0.31 0.525,-0.286 0.525,-0.26Z" style="fill-rule:nonzero;"/>
            </g>
            <g transform="matrix(160,0,0,160,315.267,699.155)">
                <path d="M0.454,-0.278L0.434,-0.062L0.022,-0.029C0.024,-0.143 0.027,-0.256 0.029,-0.368C0.031,-0.48 0.035,-0.593 0.038,-0.707L0.292,-0.707C0.285,-0.636 0.277,-0.565 0.271,-0.493C0.264,-0.422 0.259,-0.351 0.256,-0.278C0.271,-0.278 0.286,-0.277 0.301,-0.277L0.347,-0.277C0.365,-0.277 0.383,-0.278 0.4,-0.278C0.418,-0.278 0.436,-0.278 0.454,-0.278Z" style="fill-rule:nonzero;"/>
            </g>
            <g transform="matrix(160,0,0,160,387.629,699.155)">
                <path d="M0.641,-0.042L0.398,-0.011L0.369,-0.121L0.258,-0.121L0.233,-0.011L-0.016,-0.035L0.179,-0.686L0.45,-0.699L0.641,-0.042ZM0.352,-0.271L0.314,-0.44L0.278,-0.271L0.352,-0.271Z" style="fill-rule:nonzero;"/>
            </g>
            <g transform="matrix(160,0,0,160,485.773,699.155)">
                <path d="M0.509,-0.687L0.481,-0.48C0.472,-0.483 0.463,-0.485 0.453,-0.486C0.444,-0.487 0.434,-0.487 0.425,-0.487C0.401,-0.487 0.378,-0.484 0.356,-0.478C0.334,-0.471 0.315,-0.462 0.298,-0.449C0.281,-0.436 0.268,-0.419 0.258,-0.4C0.248,-0.38 0.243,-0.357 0.243,-0.331C0.243,-0.314 0.246,-0.299 0.251,-0.287C0.257,-0.275 0.264,-0.264 0.274,-0.256C0.284,-0.248 0.295,-0.242 0.309,-0.238C0.322,-0.234 0.337,-0.232 0.353,-0.232C0.365,-0.232 0.377,-0.234 0.39,-0.236C0.403,-0.239 0.416,-0.242 0.429,-0.247C0.441,-0.251 0.454,-0.256 0.466,-0.261C0.478,-0.267 0.489,-0.272 0.499,-0.278L0.479,-0.049C0.467,-0.042 0.453,-0.037 0.438,-0.031C0.423,-0.026 0.408,-0.022 0.393,-0.018C0.377,-0.015 0.361,-0.012 0.346,-0.01C0.33,-0.008 0.315,-0.007 0.301,-0.007C0.259,-0.007 0.221,-0.014 0.185,-0.03C0.149,-0.045 0.118,-0.066 0.092,-0.093C0.065,-0.119 0.045,-0.151 0.03,-0.187C0.014,-0.224 0.007,-0.263 0.007,-0.305C0.007,-0.36 0.015,-0.413 0.031,-0.462C0.047,-0.511 0.07,-0.555 0.101,-0.592C0.132,-0.629 0.17,-0.658 0.216,-0.68C0.262,-0.701 0.314,-0.712 0.374,-0.712C0.396,-0.712 0.42,-0.71 0.443,-0.707C0.467,-0.703 0.489,-0.696 0.509,-0.687Z" style="fill-rule:nonzero;"/>
            </g>
            <g transform="matrix(160,0,0,160,568.135,699.155)">
                <path d="M0.644,-0.699L0.409,-0.374L0.607,-0.028L0.38,0.012L0.232,-0.199L0.224,0.021L0.021,0.029L0.037,-0.719L0.264,-0.706L0.247,-0.485L0.398,-0.719L0.644,-0.699Z" style="fill-rule:nonzero;"/>
            </g>
        </g>
        <g transform="matrix(0.656824,0,0,0.656824,46.4944,199.511)">
            <g transform="matrix(160,0,0,160,230.327,699.155)">
                <path d="M0.525,-0.26C0.525,-0.215 0.517,-0.176 0.502,-0.143C0.486,-0.109 0.465,-0.082 0.438,-0.06C0.411,-0.037 0.38,-0.021 0.344,-0.01C0.308,0.001 0.269,0.007 0.228,0.007C0.212,0.007 0.195,0.005 0.176,0C0.156,-0.004 0.137,-0.009 0.118,-0.015C0.098,-0.022 0.079,-0.029 0.061,-0.036C0.043,-0.043 0.027,-0.05 0.013,-0.057L0.035,-0.258C0.062,-0.241 0.093,-0.229 0.127,-0.22C0.16,-0.211 0.194,-0.207 0.226,-0.207C0.232,-0.207 0.24,-0.207 0.249,-0.208C0.257,-0.208 0.266,-0.21 0.274,-0.212C0.282,-0.215 0.288,-0.218 0.294,-0.223C0.299,-0.228 0.302,-0.235 0.302,-0.244C0.302,-0.25 0.3,-0.256 0.296,-0.26C0.292,-0.264 0.287,-0.268 0.281,-0.271C0.275,-0.274 0.268,-0.276 0.26,-0.277C0.252,-0.279 0.245,-0.28 0.237,-0.28C0.23,-0.281 0.223,-0.281 0.216,-0.281L0.201,-0.281C0.173,-0.281 0.147,-0.286 0.124,-0.296C0.101,-0.306 0.082,-0.319 0.065,-0.337C0.049,-0.354 0.036,-0.375 0.027,-0.399C0.018,-0.423 0.013,-0.449 0.013,-0.477C0.013,-0.515 0.021,-0.549 0.036,-0.58C0.052,-0.61 0.073,-0.636 0.098,-0.657C0.124,-0.679 0.154,-0.695 0.188,-0.707C0.221,-0.718 0.256,-0.724 0.292,-0.724C0.307,-0.724 0.324,-0.723 0.341,-0.722C0.358,-0.721 0.375,-0.719 0.391,-0.716C0.408,-0.713 0.424,-0.709 0.44,-0.705C0.456,-0.7 0.472,-0.694 0.486,-0.688L0.467,-0.489C0.445,-0.497 0.422,-0.503 0.398,-0.508C0.373,-0.513 0.35,-0.516 0.327,-0.516C0.322,-0.516 0.317,-0.516 0.31,-0.515C0.304,-0.515 0.297,-0.515 0.289,-0.514C0.282,-0.513 0.275,-0.512 0.267,-0.51C0.26,-0.509 0.253,-0.506 0.247,-0.504C0.241,-0.501 0.236,-0.497 0.233,-0.493C0.229,-0.488 0.228,-0.483 0.228,-0.477C0.228,-0.469 0.231,-0.464 0.236,-0.459C0.241,-0.455 0.248,-0.451 0.256,-0.449C0.264,-0.447 0.272,-0.445 0.282,-0.444C0.292,-0.443 0.301,-0.442 0.311,-0.442C0.32,-0.442 0.329,-0.442 0.337,-0.442C0.345,-0.442 0.352,-0.442 0.357,-0.441C0.383,-0.44 0.406,-0.434 0.427,-0.425C0.448,-0.415 0.466,-0.403 0.48,-0.387C0.495,-0.372 0.506,-0.353 0.513,-0.331C0.521,-0.31 0.525,-0.286 0.525,-0.26Z" style="fill-rule:nonzero;"/>
            </g>
            <g transform="matrix(160,0,0,160,315.267,699.155)">
                <path d="M0.454,-0.278L0.434,-0.062L0.022,-0.029C0.024,-0.143 0.027,-0.256 0.029,-0.368C0.031,-0.48 0.035,-0.593 0.038,-0.707L0.292,-0.707C0.285,-0.636 0.277,-0.565 0.271,-0.493C0.264,-0.422 0.259,-0.351 0.256,-0.278C0.271,-0.278 0.286,-0.277 0.301,-0.277L0.347,-0.277C0.365,-0.277 0.383,-0.278 0.4,-0.278C0.418,-0.278 0.436,-0.278 0.454,-0.278Z" style="fill-rule:nonzero;"/>
            </g>
            <g transform="matrix(160,0,0,160,387.629,699.155)">
                <path d="M0.641,-0.042L0.398,-0.011L0.369,-0.121L0.258,-0.121L0.233,-0.011L-0.016,-0.035L0.179,-0.686L0.45,-0.699L0.641,-0.042ZM0.352,-0.271L0.314,-0.44L0.278,-0.271L0.352,-0.271Z" style="fill-rule:nonzero;"/>
            </g>
            <g transform="matrix(160,0,0,160,485.773,699.155)">
                <path d="M0.509,-0.687L0.481,-0.48C0.472,-0.483 0.463,-0.485 0.453,-0.486C0.444,-0.487 0.434,-0.487 0.425,-0.487C0.401,-0.487 0.378,-0.484 0.356,-0.478C0.334,-0.471 0.315,-0.462 0.298,-0.449C0.281,-0.436 0.268,-0.419 0.258,-0.4C0.248,-0.38 0.243,-0.357 0.243,-0.331C0.243,-0.314 0.246,-0.299 0.251,-0.287C0.257,-0.275 0.264,-0.264 0.274,-0.256C0.284,-0.248 0.295,-0.242 0.309,-0.238C0.322,-0.234 0.337,-0.232 0.353,-0.232C0.365,-0.232 0.377,-0.234 0.39,-0.236C0.403,-0.239 0.416,-0.242 0.429,-0.247C0.441,-0.251 0.454,-0.256 0.466,-0.261C0.478,-0.267 0.489,-0.272 0.499,-0.278L0.479,-0.049C0.467,-0.042 0.453,-0.037 0.438,-0.031C0.423,-0.026 0.408,-0.022 0.393,-0.018C0.377,-0.015 0.361,-0.012 0.346,-0.01C0.33,-0.008 0.315,-0.007 0.301,-0.007C0.259,-0.007 0.221,-0.014 0.185,-0.03C0.149,-0.045 0.118,-0.066 0.092,-0.093C0.065,-0.119 0.045,-0.151 0.03,-0.187C0.014,-0.224 0.007,-0.263 0.007,-0.305C0.007,-0.36 0.015,-0.413 0.031,-0.462C0.047,-0.511 0.07,-0.555 0.101,-0.592C0.132,-0.629 0.17,-0.658 0.216,-0.68C0.262,-0.701 0.314,-0.712 0.374,-0.712C0.396,-0.712 0.42,-0.71 0.443,-0.707C0.467,-0.703 0.489,-0.696 0.509,-0.687Z" style="fill-rule:nonzero;"/>
            </g>
            <g transform="matrix(160,0,0,160,568.135,699.155)">
                <path d="M0.644,-0.699L0.409,-0.374L0.607,-0.028L0.38,0.012L0.232,-0.199L0.224,0.021L0.021,0.029L0.037,-0.719L0.264,-0.706L0.247,-0.485L0.398,-0.719L0.644,-0.699Z" style="fill-rule:nonzero;"/>
            </g>
        </g>
        <g transform="matrix(0.656824,0,0,0.656824,184.074,200.313)">
            <g transform="matrix(160,0,0,160,536.383,696.827)">
                <path d="M0.628,-0.345C0.628,-0.315 0.625,-0.287 0.618,-0.259C0.611,-0.232 0.601,-0.206 0.589,-0.182C0.576,-0.158 0.56,-0.135 0.542,-0.115C0.523,-0.095 0.503,-0.078 0.48,-0.064C0.457,-0.05 0.432,-0.038 0.405,-0.031C0.378,-0.023 0.349,-0.019 0.319,-0.019C0.29,-0.019 0.262,-0.022 0.235,-0.03C0.209,-0.037 0.184,-0.048 0.161,-0.061C0.138,-0.075 0.117,-0.091 0.098,-0.11C0.079,-0.129 0.063,-0.15 0.05,-0.174C0.037,-0.197 0.027,-0.222 0.019,-0.249C0.012,-0.275 0.008,-0.303 0.008,-0.332C0.008,-0.36 0.012,-0.388 0.019,-0.415C0.025,-0.442 0.035,-0.468 0.048,-0.492C0.061,-0.516 0.076,-0.538 0.095,-0.559C0.113,-0.579 0.133,-0.596 0.156,-0.611C0.179,-0.625 0.203,-0.637 0.229,-0.645C0.256,-0.653 0.284,-0.657 0.313,-0.657C0.36,-0.657 0.403,-0.65 0.442,-0.635C0.481,-0.621 0.514,-0.6 0.542,-0.573C0.569,-0.545 0.591,-0.512 0.606,-0.474C0.621,-0.435 0.628,-0.392 0.628,-0.345ZM0.412,-0.332C0.412,-0.346 0.41,-0.36 0.406,-0.373C0.401,-0.386 0.396,-0.398 0.388,-0.408C0.38,-0.418 0.37,-0.427 0.359,-0.433C0.347,-0.439 0.334,-0.442 0.319,-0.442C0.304,-0.442 0.29,-0.44 0.278,-0.434C0.266,-0.429 0.255,-0.421 0.247,-0.411C0.238,-0.402 0.232,-0.391 0.227,-0.378C0.222,-0.365 0.22,-0.351 0.22,-0.337C0.22,-0.323 0.222,-0.31 0.226,-0.296C0.23,-0.282 0.236,-0.27 0.244,-0.259C0.251,-0.248 0.261,-0.239 0.273,-0.232C0.284,-0.225 0.298,-0.222 0.313,-0.222C0.328,-0.222 0.342,-0.225 0.354,-0.231C0.366,-0.237 0.377,-0.245 0.385,-0.255C0.394,-0.265 0.4,-0.277 0.405,-0.291C0.409,-0.304 0.412,-0.318 0.412,-0.332Z" style="fill-rule:nonzero;"/>
            </g>
            <g transform="matrix(160,0,0,160,638.415,696.827)">
                <path d="M0.487,-0.704C0.485,-0.674 0.484,-0.643 0.482,-0.613C0.48,-0.583 0.478,-0.553 0.476,-0.522L0.269,-0.512L0.269,-0.45L0.448,-0.45L0.438,-0.299L0.268,-0.294L0.269,-0.005L0.021,-0L0.037,-0.704L0.487,-0.704Z" style="fill-rule:nonzero;"/>
            </g>
            <g transform="matrix(160,0,0,160,716.383,696.827)">
                <path d="M0.487,-0.704C0.485,-0.674 0.484,-0.643 0.482,-0.613C0.48,-0.583 0.478,-0.553 0.476,-0.522L0.269,-0.512L0.269,-0.45L0.448,-0.45L0.438,-0.299L0.268,-0.294L0.269,-0.005L0.021,-0L0.037,-0.704L0.487,-0.704Z" style="fill-rule:nonzero;"/>
            </g>
        </g>
        <g transform="matrix(0.656824,0,0,0.656824,184.074,200.313)">
            <g transform="matrix(160,0,0,160,536.383,696.827)">
                <path d="M0.628,-0.345C0.628,-0.315 0.625,-0.287 0.618,-0.259C0.611,-0.232 0.601,-0.206 0.589,-0.182C0.576,-0.158 0.56,-0.135 0.542,-0.115C0.523,-0.095 0.503,-0.078 0.48,-0.064C0.457,-0.05 0.432,-0.038 0.405,-0.031C0.378,-0.023 0.349,-0.019 0.319,-0.019C0.29,-0.019 0.262,-0.022 0.235,-0.03C0.209,-0.037 0.184,-0.048 0.161,-0.061C0.138,-0.075 0.117,-0.091 0.098,-0.11C0.079,-0.129 0.063,-0.15 0.05,-0.174C0.037,-0.197 0.027,-0.222 0.019,-0.249C0.012,-0.275 0.008,-0.303 0.008,-0.332C0.008,-0.36 0.012,-0.388 0.019,-0.415C0.025,-0.442 0.035,-0.468 0.048,-0.492C0.061,-0.516 0.076,-0.538 0.095,-0.559C0.113,-0.579 0.133,-0.596 0.156,-0.611C0.179,-0.625 0.203,-0.637 0.229,-0.645C0.256,-0.653 0.284,-0.657 0.313,-0.657C0.36,-0.657 0.403,-0.65 0.442,-0.635C0.481,-0.621 0.514,-0.6 0.542,-0.573C0.569,-0.545 0.591,-0.512 0.606,-0.474C0.621,-0.435 0.628,-0.392 0.628,-0.345ZM0.412,-0.332C0.412,-0.346 0.41,-0.36 0.406,-0.373C0.401,-0.386 0.396,-0.398 0.388,-0.408C0.38,-0.418 0.37,-0.427 0.359,-0.433C0.347,-0.439 0.334,-0.442 0.319,-0.442C0.304,-0.442 0.29,-0.44 0.278,-0.434C0.266,-0.429 0.255,-0.421 0.247,-0.411C0.238,-0.402 0.232,-0.391 0.227,-0.378C0.222,-0.365 0.22,-0.351 0.22,-0.337C0.22,-0.323 0.222,-0.31 0.226,-0.296C0.23,-0.282 0.236,-0.27 0.244,-0.259C0.251,-0.248 0.261,-0.239 0.273,-0.232C0.284,-0.225 0.298,-0.222 0.313,-0.222C0.328,-0.222 0.342,-0.225 0.354,-0.231C0.366,-0.237 0.377,-0.245 0.385,-0.255C0.394,-0.265 0.4,-0.277 0.405,-0.291C0.409,-0.304 0.412,-0.318 0.412,-0.332Z" style="fill:#f15a29;fill-rule:nonzero;"/>
            </g>
            <g transform="matrix(160,0,0,160,638.415,696.827)">
                <path d="M0.487,-0.704C0.485,-0.674 0.484,-0.643 0.482,-0.613C0.48,-0.583 0.478,-0.553 0.476,-0.522L0.269,-0.512L0.269,-0.45L0.448,-0.45L0.438,-0.299L0.268,-0.294L0.269,-0.005L0.021,-0L0.037,-0.704L0.487,-0.704Z" style="fill:#f15a29;fill-rule:nonzero;"/>
            </g>
            <g transform="matrix(160,0,0,160,716.383,696.827)">
                <path d="M0.487,-0.704C0.485,-0.674 0.484,-0.643 0.482,-0.613C0.48,-0.583 0.478,-0.553 0.476,-0.522L0.269,-0.512L0.269,-0.45L0.448,-0.45L0.438,-0.299L0.268,-0.294L0.269,-0.005L0.021,-0L0.037,-0.704L0.487,-0.704Z" style="fill:#f15a29;fill-rule:nonzero;"/>
            </g>
        </g>
    </g>
</svg>
